<?xml version="1.0" encoding="UTF-8"?>
<svg width="20px" height="16px" viewBox="0 0 20 16" version="1.1" xmlns="http://www.w3.org/2000/svg" xmlns:xlink="http://www.w3.org/1999/xlink">
    <!-- Generator: Sketch 42 (36781) - http://www.bohemiancoding.com/sketch -->
    <title>icons/virtual</title>
    <desc>Created with Sketch.</desc>
    <defs></defs>
    <g id="Page-1" stroke="none" stroke-width="1" fill="none" fill-rule="evenodd">
        <g id="Test" transform="translate(-171.000000, -1000.000000)" fill="#293C51">
            <g id="table" transform="translate(140.000000, 862.000000)">
                <path d="M31,139.009369 C31,138.45191 31.4553056,138 31.9918031,138 L50.0081969,138 C50.5559546,138 51,138.443353 51,139.009369 L51,140.990631 C51,141.54809 50.5446944,142 50.0081969,142 L31.9918031,142 C31.4440454,142 31,141.556647 31,140.990631 L31,139.009369 Z M31,151.009369 C31,150.45191 31.4553056,150 31.9918031,150 L50.0081969,150 C50.5559546,150 51,150.443353 51,151.009369 L51,152.990631 C51,153.54809 50.5446944,154 50.0081969,154 L31.9918031,154 C31.4440454,154 31,153.556647 31,152.990631 L31,151.009369 Z M31,145.009369 C31,144.45191 31.4553056,144 31.9918031,144 L50.0081969,144 C50.5559546,144 51,144.443353 51,145.009369 L51,146.990631 C51,147.54809 50.5446944,148 50.0081969,148 L31.9918031,148 C31.4440454,148 31,147.556647 31,146.990631 L31,145.009369 Z M32,139 L32,141 L36,141 L36,139 L32,139 Z M32,151 L32,153 L36,153 L36,151 L32,151 Z M32,145 L32,147 L36,147 L36,145 L32,145 Z" id="icons/virtual"></path>
            </g>
        </g>
    </g>
</svg>