<?xml version="1.0" encoding="UTF-8"?>
<svg width="120px" height="119px" viewBox="0 0 120 119" version="1.1" xmlns="http://www.w3.org/2000/svg" xmlns:xlink="http://www.w3.org/1999/xlink">
    <g id="Page-1" stroke="none" stroke-width="1" fill="none" fill-rule="evenodd">
        <g id="Test" transform="translate(-129.000000, -643.000000)">
            <g id="gerb" transform="translate(129.000000, 640.000000)">
                <g id="img/gerb" transform="translate(0.000000, 3.000000)">
                    <polygon id="Combined-Shape" class='hhh' fill="red" points="60 119 25.1704996 103.520222 12 109.2 12 12 108 12 108 109.2 94.8295004 103.520222"></polygon>
                    <rect id="Rectangle-7-Copy-71" fill="#F3CA00" x="0" y="0" width="120" height="12" rx="2"></rect>
                    <polygon id="Rectangle-13-Copy-8" fill="#000000" opacity="0.06" points="54.1804737 33 66 33.0388129 108.004332 74.423094 108 109 95 103.5 85 108 47.0366039 69.9794579 42 56.838446 50.7302441 42.8644419 57.8405302 40.8241563 54.0581944 37.0383761"></polygon>
                    <path d="M66,33 L54,33 L54,37 L66,37 L66,33 Z M58,59 L62,59 L62,47 L58,47 L58,59 Z M74.06,45.78 L76.9,42.94 C76.04,41.92 75.1,40.96 74.08,40.12 L71.24,42.96 C68.14,40.48 64.24,39 60,39 C50.06,39 42,47.06 42,57 C42,66.94 50.04,75 60,75 C69.96,75 78,66.94 78,57 C78,52.76 76.52,48.86 74.06,45.78 Z M60,71 C52.26,71 46,64.74 46,57 C46,49.26 52.26,43 60,43 C67.74,43 74,49.26 74,57 C74,64.74 67.74,71 60,71 Z" id="clock" fill="#FFFFFF" fill-rule="nonzero"></path>
                </g>
            </g>
        </g>
    </g>
</svg>