<svg xmlns="http://www.w3.org/2000/svg" xmlns:xlink="http://www.w3.org/1999/xlink" width="24" height="49" viewBox="0 0 24 49"><svg width="24" height="16" viewBox="0 0 24 16" id="cloud" y="0"><title>icons/cloud</title><path d="M19.35 6.04A7.49 7.49 0 0 0 12 0C9.11 0 6.6 1.64 5.35 4.04A5.994 5.994 0 0 0 0 10c0 3.31 2.69 6 6 6h13c2.76 0 5-2.24 5-5 0-2.64-2.05-4.78-4.65-4.96z" fill="#293E51" fill-rule="evenodd"></path></svg><svg width="20" height="17" viewBox="0 0 20 17" id="home" y="16"><title>icons/home</title><path d="M8 17v-6h4v6h5V9h3L10 0 0 9h3v8z" fill="#293E51" fill-rule="evenodd"></path></svg><svg width="20" height="16" viewBox="0 0 20 16" id="virtual" y="33"><title>icons/virtual</title><path d="M0 1.01C0 .451.455 0 .992 0h18.016c.548 0 .992.443.992 1.01v1.98c0 .558-.455 1.01-.992 1.01H.992A.995.995 0 0 1 0 2.99V1.01zm0 12C0 12.451.455 12 .992 12h18.016c.548 0 .992.443.992 1.01v1.98c0 .558-.455 1.01-.992 1.01H.992A.995.995 0 0 1 0 14.99v-1.98zm0-6C0 6.451.455 6 .992 6h18.016c.548 0 .992.443.992 1.01v1.98c0 .558-.455 1.01-.992 1.01H.992A.995.995 0 0 1 0 8.99V7.01zM1 1v2h4V1H1zm0 12v2h4v-2H1zm0-6v2h4V7H1z" fill="#293C51" fill-rule="evenodd"></path></svg></svg>