<svg width="120" height="119" viewBox="0 0 120 119" xmlns="http://www.w3.org/2000/svg"><g fill="none" fill-rule="evenodd"><path class="hhh" fill="red" d="M60 119l-34.83-15.48L12 109.2V12h96v97.2l-13.17-5.68z"/><rect fill="#F3CA00" width="120" height="12" rx="2"/><path fill="#000" opacity=".06" d="M54.18 33l11.82.039 42.004 41.384L108 109l-13-5.5-10 4.5-37.963-38.02L42 56.837l8.73-13.974 7.11-2.04-3.782-3.786z"/><path d="M66 33H54v4h12v-4zm-8 26h4V47h-4v12zm16.06-13.22l2.84-2.84c-.86-1.02-1.8-1.98-2.82-2.82l-2.84 2.84C68.14 40.48 64.24 39 60 39c-9.94 0-18 8.06-18 18s8.04 18 18 18 18-8.06 18-18c0-4.24-1.48-8.14-3.94-11.22zM60 71c-7.74 0-14-6.26-14-14s6.26-14 14-14 14 6.26 14 14-6.26 14-14 14z" fill="#FFF" fill-rule="nonzero"/></g></svg>